<svg xmlns="http://www.w3.org/2000/svg" width="900" height="820" viewBox="0 0 900 820">
  <rect width="900" height="820" fill="#0d1220"/>
  <text x="24" y="34" fill="#eef2ff" font-family="system-ui,sans-serif" font-size="19" font-weight="700">관통 값어치 — 보석 한 알이 평균 피해를 몇 % 올리나</text>
  <text x="24" y="56" fill="#8fa3c8" font-family="system-ui,sans-serif" font-size="12">막대가 길수록 그 자리에서 값어치가 크다. 관통은 상대 방어력이 두꺼운 자리에서만 커진다.</text><rect x="560" y="24" width="10" height="10" fill="#7cc4ff"/>
  <text x="574" y="33" fill="#cfe0f5" font-family="system-ui,sans-serif" font-size="10">관통</text><rect x="644" y="24" width="10" height="10" fill="#ffb46b"/>
  <text x="658" y="33" fill="#cfe0f5" font-family="system-ui,sans-serif" font-size="10">공격력</text><rect x="728" y="24" width="10" height="10" fill="#7ef0b0"/>
  <text x="742" y="33" fill="#cfe0f5" font-family="system-ui,sans-serif" font-size="10">치명타</text><rect x="812" y="24" width="10" height="10" fill="#c9a2ff"/>
  <text x="826" y="33" fill="#cfe0f5" font-family="system-ui,sans-serif" font-size="10">치명피해</text><text x="24" y="98" fill="#eef2ff" font-family="system-ui,sans-serif" font-size="13" font-weight="600">5단계 보스 · 악마 정찰대장</text>
  <text x="24" y="114" fill="#8fa3c8" font-family="system-ui,sans-serif" font-size="11">상대 방어 ÷ 내 공격 = 0.86</text><rect x="300" y="92" width="180.7" height="11" rx="3" fill="#7cc4ff" opacity="0.9"/>
  <text x="486.6514792629139" y="102" fill="#cfe0f5" font-family="system-ui,sans-serif" font-size="10">+4.9%</text><rect x="300" y="107" width="437.3" height="11" rx="3" fill="#ffb46b" opacity="0.9"/>
  <text x="743.277282554214" y="117" fill="#cfe0f5" font-family="system-ui,sans-serif" font-size="10">+11.8%</text><rect x="300" y="122" width="128.4" height="11" rx="3" fill="#7ef0b0" opacity="0.9"/>
  <text x="434.3992585564971" y="132" fill="#cfe0f5" font-family="system-ui,sans-serif" font-size="10">+3.5%</text><rect x="300" y="137" width="115.5" height="11" rx="3" fill="#c9a2ff" opacity="0.9"/>
  <text x="421.5435328470685" y="147" fill="#cfe0f5" font-family="system-ui,sans-serif" font-size="10">+3.1%</text><text x="24" y="194" fill="#eef2ff" font-family="system-ui,sans-serif" font-size="13" font-weight="600">10단계 보스 · 발가르</text>
  <text x="24" y="210" fill="#8fa3c8" font-family="system-ui,sans-serif" font-size="11">상대 방어 ÷ 내 공격 = 2.40</text><rect x="300" y="188" width="282.8" height="11" rx="3" fill="#7cc4ff" opacity="0.9"/>
  <text x="588.7792808501201" y="198" fill="#cfe0f5" font-family="system-ui,sans-serif" font-size="10">+7.6%</text><rect x="300" y="203" width="503.5" height="11" rx="3" fill="#ffb46b" opacity="0.9"/>
  <text x="809.506072147499" y="213" fill="#cfe0f5" font-family="system-ui,sans-serif" font-size="10">+13.5%</text><rect x="300" y="218" width="147.9" height="11" rx="3" fill="#7ef0b0" opacity="0.9"/>
  <text x="453.94553392316476" y="228" fill="#cfe0f5" font-family="system-ui,sans-serif" font-size="10">+4.0%</text><rect x="300" y="233" width="122.4" height="11" rx="3" fill="#c9a2ff" opacity="0.9"/>
  <text x="428.409040089765" y="243" fill="#cfe0f5" font-family="system-ui,sans-serif" font-size="10">+3.3%</text><text x="24" y="290" fill="#eef2ff" font-family="system-ui,sans-serif" font-size="13" font-weight="600">15단계 보스 · 강화된 정찰대장</text>
  <text x="24" y="306" fill="#8fa3c8" font-family="system-ui,sans-serif" font-size="11">상대 방어 ÷ 내 공격 = 2.08</text><rect x="300" y="284" width="266.5" height="11" rx="3" fill="#7cc4ff" opacity="0.9"/>
  <text x="572.4952833976989" y="294" fill="#cfe0f5" font-family="system-ui,sans-serif" font-size="10">+7.2%</text><rect x="300" y="299" width="499.8" height="11" rx="3" fill="#ffb46b" opacity="0.9"/>
  <text x="805.8102091923256" y="309" fill="#cfe0f5" font-family="system-ui,sans-serif" font-size="10">+13.4%</text><rect x="300" y="314" width="127.4" height="11" rx="3" fill="#7ef0b0" opacity="0.9"/>
  <text x="433.3617102222851" y="324" fill="#cfe0f5" font-family="system-ui,sans-serif" font-size="10">+3.4%</text><rect x="300" y="329" width="169.4" height="11" rx="3" fill="#c9a2ff" opacity="0.9"/>
  <text x="475.3812105937674" y="339" fill="#cfe0f5" font-family="system-ui,sans-serif" font-size="10">+4.6%</text><text x="24" y="386" fill="#eef2ff" font-family="system-ui,sans-serif" font-size="13" font-weight="600">20단계 보스 · 강화된 발가르</text>
  <text x="24" y="402" fill="#8fa3c8" font-family="system-ui,sans-serif" font-size="11">상대 방어 ÷ 내 공격 = 2.54</text><rect x="300" y="380" width="283.7" height="11" rx="3" fill="#7cc4ff" opacity="0.9"/>
  <text x="589.6737495845246" y="390" fill="#cfe0f5" font-family="system-ui,sans-serif" font-size="10">+7.6%</text><rect x="300" y="395" width="520.0" height="11" rx="3" fill="#ffb46b" opacity="0.9"/>
  <text x="826" y="405" fill="#cfe0f5" font-family="system-ui,sans-serif" font-size="10">+14.0%</text><rect x="300" y="410" width="128.7" height="11" rx="3" fill="#7ef0b0" opacity="0.9"/>
  <text x="434.7103352814169" y="420" fill="#cfe0f5" font-family="system-ui,sans-serif" font-size="10">+3.5%</text><rect x="300" y="425" width="185.9" height="11" rx="3" fill="#c9a2ff" opacity="0.9"/>
  <text x="491.91531686063354" y="435" fill="#cfe0f5" font-family="system-ui,sans-serif" font-size="10">+5.0%</text><text x="24" y="482" fill="#eef2ff" font-family="system-ui,sans-serif" font-size="13" font-weight="600">지하감옥 5층 · 감옥의 주인</text>
  <text x="24" y="498" fill="#8fa3c8" font-family="system-ui,sans-serif" font-size="11">상대 방어 ÷ 내 공격 = 1.71</text><rect x="300" y="476" width="274.0" height="11" rx="3" fill="#7cc4ff" opacity="0.9"/>
  <text x="580.02579620906" y="486" fill="#cfe0f5" font-family="system-ui,sans-serif" font-size="10">+7.4%</text><rect x="300" y="491" width="482.7" height="11" rx="3" fill="#ffb46b" opacity="0.9"/>
  <text x="788.7008552620574" y="501" fill="#cfe0f5" font-family="system-ui,sans-serif" font-size="10">+13.0%</text><rect x="300" y="506" width="1.0" height="11" rx="3" fill="#7ef0b0" opacity="0.9"/>
  <text x="307" y="516" fill="#cfe0f5" font-family="system-ui,sans-serif" font-size="10">+0.0%</text><rect x="300" y="521" width="75.5" height="11" rx="3" fill="#c9a2ff" opacity="0.9"/>
  <text x="381.5015721813426" y="531" fill="#cfe0f5" font-family="system-ui,sans-serif" font-size="10">+2.0%</text><text x="24" y="592" fill="#eef2ff" font-family="system-ui,sans-serif" font-size="14" font-weight="700">이미 챙긴 관통에 따라, 다음 한 알이 올려 주는 몫</text>
  <rect x="80" y="606" width="760" height="150" fill="#111830" stroke="#26314d"/><polyline fill="none" stroke="#7cc4ff" stroke-width="2.5" points="80.0,686.3 188.6,681.5 297.1,675.2 405.7,668.0 514.3,659.1 622.9,648.0 731.4,633.4 840.0,614.0"/><circle cx="80.0" cy="686.3" r="3.5" fill="#7cc4ff"/>
  <text x="80.0" y="677.3" fill="#cfe0f5" font-family="system-ui,sans-serif" font-size="10" text-anchor="middle">+7.6%</text>
  <text x="80.0" y="772" fill="#8fa3c8" font-family="system-ui,sans-serif" font-size="10" text-anchor="middle">0%</text><circle cx="188.6" cy="681.5" r="3.5" fill="#7cc4ff"/>
  <text x="188.6" y="672.5" fill="#cfe0f5" font-family="system-ui,sans-serif" font-size="10" text-anchor="middle">+8.2%</text>
  <text x="188.6" y="772" fill="#8fa3c8" font-family="system-ui,sans-serif" font-size="10" text-anchor="middle">10%</text><circle cx="297.1" cy="675.2" r="3.5" fill="#7cc4ff"/>
  <text x="297.1" y="666.2" fill="#cfe0f5" font-family="system-ui,sans-serif" font-size="10" text-anchor="middle">+9.0%</text>
  <text x="297.1" y="772" fill="#8fa3c8" font-family="system-ui,sans-serif" font-size="10" text-anchor="middle">20%</text><circle cx="405.7" cy="668.0" r="3.5" fill="#7cc4ff"/>
  <text x="405.7" y="659.0" fill="#cfe0f5" font-family="system-ui,sans-serif" font-size="10" text-anchor="middle">+9.9%</text>
  <text x="405.7" y="772" fill="#8fa3c8" font-family="system-ui,sans-serif" font-size="10" text-anchor="middle">30%</text><circle cx="514.3" cy="659.1" r="3.5" fill="#7cc4ff"/>
  <text x="514.3" y="650.1" fill="#cfe0f5" font-family="system-ui,sans-serif" font-size="10" text-anchor="middle">+11.0%</text>
  <text x="514.3" y="772" fill="#8fa3c8" font-family="system-ui,sans-serif" font-size="10" text-anchor="middle">40%</text><circle cx="622.9" cy="648.0" r="3.5" fill="#7cc4ff"/>
  <text x="622.9" y="639.0" fill="#cfe0f5" font-family="system-ui,sans-serif" font-size="10" text-anchor="middle">+12.4%</text>
  <text x="622.9" y="772" fill="#8fa3c8" font-family="system-ui,sans-serif" font-size="10" text-anchor="middle">50%</text><circle cx="731.4" cy="633.4" r="3.5" fill="#7cc4ff"/>
  <text x="731.4" y="624.4" fill="#cfe0f5" font-family="system-ui,sans-serif" font-size="10" text-anchor="middle">+14.2%</text>
  <text x="731.4" y="772" fill="#8fa3c8" font-family="system-ui,sans-serif" font-size="10" text-anchor="middle">60%</text><circle cx="840.0" cy="614.0" r="3.5" fill="#7cc4ff"/>
  <text x="840.0" y="605.0" fill="#cfe0f5" font-family="system-ui,sans-serif" font-size="10" text-anchor="middle">+16.6%</text>
  <text x="840.0" y="772" fill="#8fa3c8" font-family="system-ui,sans-serif" font-size="10" text-anchor="middle">70%</text><text x="460" y="790" fill="#8fa3c8" font-family="system-ui,sans-serif" font-size="11" text-anchor="middle">이미 챙긴 관통</text>
</svg>